# xmcd
#
# Track frame offsets:
#	150
#	19568
#	34379
#	51790
#	71066
#	89524
#	110475
#	128463
#	144518
#	161748
#	180186
#	199703
#	217166
#
# Disc length: 3139 seconds
#
# Revision: 0
# Processed by: cddbd v1.5.1PL2 Copyright (c) Steve Scherf et al.
# Submitted via: EasyCDDAExtractor 9.0.0.1
#
DISCID=b60c410d
DTITLE=SONS OF FUNK - The game of Funk
DYEAR=1998
DGENRE=R&B
TTITLE0=Make Love To A Thug
TTITLE1=Sons Reasons
TTITLE2=You And Me
TTITLE3=I Got The Hook-Up!
TTITLE4=Y'all I Want
TTITLE5=The First Time
TTITLE6=Side To Side
TTITLE7=Makin' Luv To My B...
TTITLE8=Pushin' Inside You
TTITLE9=Sons... I Got The Hook-Uo! (R&B)
TTITLE10=Don't Wanna Let You Go
TTITLE11=Hey Lady
TTITLE12=Time Will Tell
EXTD=YEAR: 1998 ID3G: 14\n
EXTT0=
EXTT1=
EXTT2=
EXTT3=
EXTT4=
EXTT5=
EXTT6=
EXTT7=
EXTT8=
EXTT9=
EXTT10=
EXTT11=
EXTT12=
PLAYORDER=
